<svg version="1" xmlns="http://www.w3.org/2000/svg" width="800" height="800" viewBox="0 0 600.000000 600.000000"><path d="M338.9 74.4c-.2.2-4 .6-8.4.9-16 1.2-39.9 6.1-55.5 11.5-4.8 1.7-6.1 1.7-11.5.6-15-3.1-46-4.7-60-3-2.7.3-7 .8-9.5 1.1-11.6 1.3-30.8 5.8-42.5 9.9-36.5 12.7-71.3 36.1-94.5 63.5-2.5 3-5 5.9-5.5 6.5-2 2-10.9 14.9-15.8 22.5-15 23.8-26.8 56.6-31.1 87.1-2 13.7-1.5 51.8.7 63.5.9 4.4 1.8 9.4 2.1 11.1 4.4 24.4 16.7 53.6 32.5 77.6 22.6 34.1 51.3 59.2 88.1 77 19.2 9.3 40 15.8 64 19.9 12.3 2.1 57 1.7 73-.7 3.9-.6 13.4-2.2 16.5-2.8 13.3-2.7 31.8-9.2 47-16.7 19.3-9.4 35.4-20.7 51.5-35.8 3.6-3.4 7.6-6.4 9-6.7 5.5-1.2 19.7-5.6 22.9-7.1 1.8-.8 3.9-1.6 4.5-1.7 1.9-.4 12.8-5.7 21.1-10.5 9.8-5.5 21.6-13.8 27.6-19.3 1.6-1.5 2.9-2.5 2.9-2.2 0 .2 4.4-4.1 9.8-9.6 12.3-12.8 15.2-15.9 15.2-16.7 0-.4.7-1.3 1.5-2.2 2.3-2.4 10.5-14.9 10.5-16 0-.5.4-1.1.9-1.3.8-.3 10.1-17.9 10.1-19.2 0-.4.9-2.7 2-5.1 2.5-5.4 9-27.6 9.5-32.5.5-4.1 1.6-12.7 2-15.5.2-1.1.4-6.5.4-12.1l.1-10.1 13.8-4.2c7.5-2.3 18.9-5.8 25.2-7.8 6.3-1.9 13.9-4.2 16.9-5.1 9.3-2.8 12.1-7.3 9.2-14.5-.6-1.6-1.1-3.2-1.1-3.7 0-1.8-8.2-21.6-13.1-31.5-6.6-13.5-11.2-21.3-18.6-32.1-26.2-37.9-62.3-67.2-105.8-85.8-21.1-9.1-48.2-16.4-71-19.1-2.7-.4-6.1-.8-7.5-1.1-3-.5-38.6-1.4-39.1-1z"/></svg>