<svg version="1" xmlns="http://www.w3.org/2000/svg" width="800" height="800" viewBox="0 0 600.000000 600.000000"><path d="M365.2 99.1c-4 .4-8 1-9 1.4-.9.3-3.5.9-5.7 1.1-26.8 3.4-63.2 31.1-89.3 68.1-3.1 4.5-9.4 15.1-15.2 25.9-5.1 9.2-12.4 33.1-13.5 43.5-.4 4.7.2 4.8 7.6 1.3 20.4-9.9 31.9-13.8 46.9-16 1.9-.3 5.1-.7 7-1 4.2-.6 29.6-.6 32.6 0 1.2.2 3.7.7 5.5 1 4.9.8 15.6 4.4 21 7.2 24 12.1 38 34.1 43.4 67.9 1.5 9.6.2 23.3-3.9 41-2.6 11.1-9.2 29.6-14.4 40.4-4.6 9.6-18.1 30.6-21.3 33.1-.3.3-2.9 3.2-5.6 6.5-9.8 11.7-21.9 22.9-38.8 35.7-13.4 10.1-16.5 12.7-16.5 14 0 .5.3.7.8.5.4-.3 3.4-.8 6.7-1.2 8-.8 23.4-4.8 31.5-8 9.4-3.7 15.1-6.9 27.5-15.1 19.4-12.8 23.8-17.1 39-37.8 6.2-8.4 18.9-31.8 24.7-45.3 4.2-9.7 10.8-35.4 12.3-48 .3-2.6.9-6.6 1.2-8.8.3-2.2.6-5.6.8-7.5.7-7.8 1.6-17.8 2.1-23 .3-3 .5-11.6.4-19-.5-26.4-.1-36.1 1.5-42 .2-.8.6-2.6.9-4 1-5.9 5.9-18.6 9.2-23.8 2-3.1 9.5-11.6 16.6-18.9l13-13.2-2.3-4.2c-1.3-2.3-6.6-8.4-11.7-13.5-14.7-14.7-39.3-29.8-55.9-34.2-10.4-2.8-13.6-3.2-28.2-3.8-6.8-.2-12.6-.6-13-.7-.3-.2-3.9 0-7.9.4z"/><path d="M293 252.2c-18.4 3.2-27.2 5.7-38.8 10.9-3.4 1.6-6.4 2.9-6.6 2.9-1 0-17.5 10.6-22.6 14.4-31.4 23.6-59.9 63.2-79 110.1-9.5 23.6-18.3 53.7-20.5 70.8-.4 3.7-2.7 18.5-5.4 35.4-.4 2.9-.6 5.4-.4 5.6.2.2 8.2-1.3 17.9-3.4 101-21.9 170-59.9 205.5-113.3 15.1-22.6 26.3-55.7 26.3-77.6 0-20.7-10-41.4-24.3-50.4-8.1-5.1-12.4-6-30.6-6.1-9.3 0-19 .3-21.5.7z"/></svg>